<svg width="51" height="46" viewBox="0 0 51 46" fill="none" xmlns="http://www.w3.org/2000/svg">
<path d="M10.8766 45.984C9.26856 45.984 8.04456 45.576 7.20456 44.76C6.38856 43.968 5.98056 42.78 5.98056 41.196V32.052C5.98056 31.404 5.83656 30.936 5.54856 30.648C5.28456 30.36 4.88856 30.216 4.36056 30.216H3.13656V28.056H4.36056C4.88856 28.056 5.28456 27.912 5.54856 27.624C5.83656 27.336 5.98056 26.868 5.98056 26.22V17.076C5.98056 15.468 6.38856 14.268 7.20456 13.476C8.04456 12.684 9.26856 12.288 10.8766 12.288H12.2446V14.412H11.2726C10.3606 14.412 9.67656 14.664 9.22056 15.168C8.76456 15.672 8.53656 16.38 8.53656 17.292V26.184C8.53656 26.904 8.45256 27.468 8.28456 27.876C8.11656 28.284 7.85256 28.596 7.49256 28.812C7.15656 29.028 6.71256 29.196 6.16056 29.316V28.956C6.71256 29.052 7.15656 29.22 7.49256 29.46C7.85256 29.676 8.11656 29.988 8.28456 30.396C8.45256 30.804 8.53656 31.368 8.53656 32.088V40.98C8.53656 41.892 8.76456 42.6 9.22056 43.104C9.67656 43.608 10.3606 43.86 11.2726 43.86H12.2446V45.984H10.8766Z" fill="#A9A9A9"/>
<path d="M40.5763 45.984H39.2443V43.86H40.2163C41.1523 43.86 41.8363 43.608 42.2683 43.104C42.7243 42.6 42.9523 41.892 42.9523 40.98V32.088C42.9523 31.368 43.0363 30.804 43.2043 30.396C43.3723 29.988 43.6363 29.676 43.9963 29.46C44.3563 29.22 44.8003 29.052 45.3283 28.956V29.316C44.8003 29.196 44.3563 29.028 43.9963 28.812C43.6363 28.596 43.3723 28.284 43.2043 27.876C43.0363 27.468 42.9523 26.904 42.9523 26.184V17.292C42.9523 16.38 42.7243 15.672 42.2683 15.168C41.8363 14.664 41.1523 14.412 40.2163 14.412H39.2443V12.288H40.5763C42.2083 12.288 43.4323 12.684 44.2483 13.476C45.0883 14.268 45.5083 15.468 45.5083 17.076V26.22C45.5083 26.868 45.6523 27.336 45.9403 27.624C46.2283 27.912 46.6243 28.056 47.1283 28.056H48.3523V30.216H47.1283C46.6243 30.216 46.2283 30.36 45.9403 30.648C45.6523 30.936 45.5083 31.404 45.5083 32.052V41.196C45.5083 42.78 45.0883 43.968 44.2483 44.76C43.4323 45.576 42.2083 45.984 40.5763 45.984Z" fill="#A9A9A9"/>
<path d="M16.8726 31.18C16.3446 31.18 15.8886 30.988 15.5046 30.604C15.1446 30.22 14.9646 29.752 14.9646 29.2C14.9646 28.624 15.1446 28.156 15.5046 27.796C15.8886 27.436 16.3446 27.256 16.8726 27.256C17.4006 27.256 17.8446 27.436 18.2046 27.796C18.5886 28.156 18.7806 28.624 18.7806 29.2C18.7806 29.752 18.5886 30.22 18.2046 30.604C17.8446 30.988 17.4006 31.18 16.8726 31.18ZM25.5015 31.18C24.9735 31.18 24.5175 30.988 24.1335 30.604C23.7735 30.22 23.5935 29.752 23.5935 29.2C23.5935 28.624 23.7735 28.156 24.1335 27.796C24.5175 27.436 24.9735 27.256 25.5015 27.256C26.0295 27.256 26.4735 27.436 26.8335 27.796C27.2175 28.156 27.4095 28.624 27.4095 29.2C27.4095 29.752 27.2175 30.22 26.8335 30.604C26.4735 30.988 26.0295 31.18 25.5015 31.18ZM34.1305 31.18C33.6025 31.18 33.1465 30.988 32.7625 30.604C32.4025 30.22 32.2225 29.752 32.2225 29.2C32.2225 28.624 32.4025 28.156 32.7625 27.796C33.1465 27.436 33.6025 27.256 34.1305 27.256C34.6585 27.256 35.1025 27.436 35.4625 27.796C35.8465 28.156 36.0385 28.624 36.0385 29.2C36.0385 29.752 35.8465 30.22 35.4625 30.604C35.1025 30.988 34.6585 31.18 34.1305 31.18Z" fill="#A9A9A9"/>
</svg>
