<svg width="96" height="50" viewBox="0 0 96 50" fill="none" xmlns="http://www.w3.org/2000/svg">
<rect x="1" y="1" width="94" height="48" rx="24" fill="#F0F0F0" stroke="#F0F0F0" stroke-width="2"/>
<circle cx="71" cy="25" r="23" fill="white"/>
<path d="M71 32C71.2449 32 71.4813 32.09 71.6644 32.2527C71.8474 32.4155 71.9643 32.6397 71.993 32.883L72 33V34C71.9997 34.2549 71.9021 34.5 71.7271 34.6854C71.5522 34.8707 71.313 34.9822 71.0586 34.9972C70.8042 35.0121 70.5536 34.9293 70.3582 34.7657C70.1627 34.6021 70.0371 34.3701 70.007 34.117L70 34V33C70 32.7348 70.1053 32.4804 70.2929 32.2929C70.4804 32.1054 70.7348 32 71 32ZM77.313 29.91L77.407 29.993L78.107 30.693C78.2863 30.873 78.3905 31.1144 78.3982 31.3684C78.406 31.6223 78.3168 31.8697 78.1487 32.0603C77.9807 32.2508 77.7464 32.3703 77.4935 32.3944C77.2406 32.4185 76.988 32.3454 76.787 32.19L76.693 32.107L75.993 31.407C75.8204 31.2347 75.7167 31.0054 75.7015 30.762C75.6862 30.5187 75.7603 30.2781 75.9099 30.0856C76.0596 29.8931 76.2744 29.7619 76.514 29.7166C76.7536 29.6714 77.0015 29.7153 77.211 29.84L77.313 29.91ZM66.007 29.993C66.1792 30.1652 66.2826 30.3943 66.2979 30.6373C66.3132 30.8803 66.2392 31.1206 66.09 31.313L66.007 31.407L65.307 32.107C65.127 32.2863 64.8856 32.3905 64.6316 32.3982C64.3777 32.406 64.1303 32.3168 63.9397 32.1488C63.7491 31.9807 63.6297 31.7464 63.6056 31.4935C63.5815 31.2406 63.6546 30.988 63.81 30.787L63.893 30.693L64.593 29.993C64.7805 29.8055 65.0348 29.7002 65.3 29.7002C65.5652 29.7002 65.8195 29.8055 66.007 29.993ZM63 24C63.2549 24.0003 63.5 24.0979 63.6854 24.2728C63.8707 24.4478 63.9822 24.687 63.9972 24.9414C64.0121 25.1958 63.9293 25.4464 63.7657 25.6418C63.6021 25.8373 63.3701 25.9629 63.117 25.993L63 26H62C61.7451 25.9997 61.5 25.9021 61.3146 25.7272C61.1293 25.5522 61.0178 25.313 61.0028 25.0586C60.9879 24.8042 61.0707 24.5536 61.2343 24.3582C61.3978 24.1627 61.6299 24.0371 61.883 24.007L62 24H63ZM80 24C80.2549 24.0003 80.5 24.0979 80.6854 24.2728C80.8707 24.4478 80.9822 24.687 80.9972 24.9414C81.0121 25.1958 80.9293 25.4464 80.7657 25.6418C80.6021 25.8373 80.3701 25.9629 80.117 25.993L80 26H79C78.7451 25.9997 78.5 25.9021 78.3146 25.7272C78.1293 25.5522 78.0178 25.313 78.0028 25.0586C77.9879 24.8042 78.0707 24.5536 78.2343 24.3582C78.3978 24.1627 78.6299 24.0371 78.883 24.007L79 24H80ZM65.213 17.81L65.307 17.893L66.007 18.593C66.1863 18.773 66.2905 19.0144 66.2982 19.2684C66.306 19.5223 66.2168 19.7697 66.0487 19.9603C65.8807 20.1508 65.6464 20.2703 65.3935 20.2944C65.1406 20.3185 64.888 20.2454 64.687 20.09L64.593 20.007L63.893 19.307C63.7211 19.1347 63.6179 18.9056 63.6029 18.6626C63.5878 18.4197 63.6619 18.1796 63.8112 17.9874C63.9605 17.7951 64.1747 17.6639 64.4139 17.6184C64.653 17.5729 64.9005 17.6161 65.11 17.74L65.213 17.81ZM78.107 17.893C78.2792 18.0652 78.3826 18.2943 78.3979 18.5373C78.4132 18.7803 78.3392 19.0206 78.19 19.213L78.107 19.307L77.407 20.007C77.227 20.1863 76.9856 20.2905 76.7316 20.2982C76.4777 20.306 76.2303 20.2168 76.0397 20.0488C75.8491 19.8807 75.7297 19.6464 75.7056 19.3935C75.6815 19.1406 75.7546 18.888 75.91 18.687L75.993 18.593L76.693 17.893C76.8805 17.7055 77.1348 17.6002 77.4 17.6002C77.6652 17.6002 77.9195 17.7055 78.107 17.893ZM71 15C71.2449 15 71.4813 15.09 71.6644 15.2527C71.8474 15.4155 71.9643 15.6397 71.993 15.883L72 16V17C71.9997 17.2549 71.9021 17.5 71.7271 17.6854C71.5522 17.8707 71.313 17.9822 71.0586 17.9972C70.8042 18.0121 70.5536 17.9293 70.3582 17.7657C70.1627 17.6021 70.0371 17.3701 70.007 17.117L70 17V16C70 15.7348 70.1053 15.4804 70.2929 15.2929C70.4804 15.1054 70.7348 15 71 15ZM71 20C71.9797 19.9999 72.9378 20.2877 73.7553 20.8275C74.5729 21.3673 75.2138 22.1354 75.5986 23.0364C75.9833 23.9373 76.0949 24.9315 75.9195 25.8953C75.744 26.8592 75.2893 27.7502 74.6118 28.4579C73.9343 29.1655 73.0638 29.6585 72.1085 29.8756C71.1532 30.0928 70.1552 30.0245 69.2383 29.6793C68.3215 29.334 67.5263 28.7271 66.9514 27.9338C66.3766 27.1405 66.0475 26.1958 66.005 25.217L66 25L66.005 24.783C66.0609 23.4958 66.6116 22.2798 67.5422 21.3887C68.4728 20.4975 69.7115 20.0001 71 20Z" fill="black"/>
<circle cx="25" cy="25" r="23" fill="#F0F0F0"/>
<path d="M25.5112 34.6736C22.9386 34.6736 20.7623 33.7832 18.9822 32.0025C17.2022 30.2218 16.3118 28.0455 16.3112 25.4736C16.3112 23.1225 17.0778 21.0821 18.6112 19.3525C20.1445 17.6229 22.1038 16.6137 24.4889 16.3247C24.7104 16.2906 24.9063 16.3206 25.0767 16.4147C25.2471 16.5087 25.3834 16.6321 25.4856 16.7847C25.5878 16.9374 25.6434 17.1162 25.6522 17.3214C25.6611 17.5265 25.597 17.7224 25.46 17.9091C25.1704 18.3521 24.953 18.8206 24.8079 19.3147C24.6627 19.8088 24.5905 20.3284 24.5912 20.8736C24.5912 22.4069 25.1278 23.7103 26.2012 24.7836C27.2745 25.8569 28.5778 26.3936 30.1112 26.3936C30.6393 26.3936 31.1634 26.3169 31.6833 26.1636C32.2033 26.0103 32.6674 25.7973 33.0756 25.5247C33.263 25.4054 33.4548 25.3502 33.6511 25.3591C33.8474 25.368 34.0218 25.4146 34.1745 25.4991C34.3449 25.5843 34.4771 25.7121 34.5711 25.8825C34.6652 26.0529 34.6948 26.2573 34.66 26.4958C34.4215 28.8469 33.4208 30.7977 31.6578 32.348C29.8948 33.8984 27.8459 34.6736 25.5112 34.6736Z" fill="black"/>
</svg>
